<?xml version="1.0" encoding="UTF-8"?>
<svg version="1.1" xmlns="http://www.w3.org/2000/svg" width="500" height="500">
<path d="M0 0 C1.15798096 0.00842926 1.15798096 0.00842926 2.33935547 0.01702881 C3.15252228 0.01513046 3.96568909 0.01323212 4.80349731 0.01127625 C7.50060568 0.00756157 10.19744667 0.01828427 12.89453125 0.02947998 C14.76539071 0.03067174 16.63625077 0.03112495 18.5071106 0.03086853 C22.43300102 0.03243471 26.35880044 0.04073318 30.28466797 0.05413818 C35.31754454 0.07110476 40.35032077 0.07495323 45.38322258 0.074193 C49.24879922 0.07446499 53.11435391 0.07995118 56.97992325 0.08719444 C58.83547932 0.09037763 60.69103788 0.0923477 62.54659653 0.09308815 C65.14162168 0.09525673 67.73654064 0.10401295 70.33154297 0.11468506 C71.09948181 0.11423187 71.86742065 0.11377869 72.65863037 0.11331177 C76.07080663 0.13382619 79.20339488 0.20429749 82.46484375 1.25994873 C83.150625 1.43912842 83.83640625 1.61830811 84.54296875 1.80291748 C93.28814024 4.39815722 99.98088694 9.21315803 104.46484375 17.25994873 C106.70263003 21.64945258 106.76549247 25.80643772 106.71484375 30.63494873 C106.72257813 31.36455811 106.7303125 32.09416748 106.73828125 32.84588623 C106.69419906 45.18889969 100.86936193 53.207265 92.39453125 61.63104248 C90.49664771 63.23310207 88.67548158 64.16411753 86.46484375 65.25994873 C86.13484375 65.91994873 85.80484375 66.57994873 85.46484375 67.25994873 C86.35171875 67.48682373 87.23859375 67.71369873 88.15234375 67.94744873 C91.92896845 69.4438472 93.85102351 71.1848661 96.46484375 74.25994873 C96.46484375 74.91994873 96.46484375 75.57994873 96.46484375 76.25994873 C97.94984375 76.75494873 97.94984375 76.75494873 99.46484375 77.25994873 C100.37890625 79.18572998 100.37890625 79.18572998 101.08984375 81.57244873 C101.32960938 82.35233154 101.569375 83.13221436 101.81640625 83.93572998 C102.03039062 84.70272217 102.244375 85.46971436 102.46484375 86.25994873 C102.77035156 87.33115967 102.77035156 87.33115967 103.08203125 88.42401123 C103.54709883 90.65443738 103.02798567 92.07777378 102.46484375 94.25994873 C102.79484375 95.24994873 103.12484375 96.23994873 103.46484375 97.25994873 C101.89825924 110.86965162 95.47446979 121.22952524 85.46484375 130.25994873 C84.45919736 131.25427028 83.45715769 132.2523213 82.46484375 133.25994873 C84.3630966 132.8330689 86.25837558 132.39295391 88.15234375 131.94744873 C89.20808594 131.70381592 90.26382813 131.46018311 91.3515625 131.20916748 C101.09277473 128.23913665 109.16236919 119.7034786 114.46484375 111.25994873 C115.29373124 108.28680405 115.29373124 108.28680405 115.46484375 105.25994873 C115.96318081 103.81449593 116.48643729 102.3775165 117.02734375 100.94744873 C118.96034026 95.19654368 119.71001803 90.2691199 117.33984375 84.54119873 C116.45073615 82.78319052 115.52558147 81.04275818 114.55859375 79.32635498 C113.46484375 77.25994873 113.46484375 77.25994873 113.46484375 75.25994873 C112.69140625 74.88869873 112.69140625 74.88869873 111.90234375 74.50994873 C109.88488377 73.47535387 107.92816648 72.39149817 105.96484375 71.25994873 C103.50085721 69.84065027 101.02812371 68.49412057 98.46484375 67.25994873 C97.80484375 66.92994873 97.14484375 66.59994873 96.46484375 66.25994873 C96.46484375 65.59994873 96.46484375 64.93994873 96.46484375 64.25994873 C97.12484375 64.25994873 97.78484375 64.25994873 98.46484375 64.25994873 C98.46484375 63.59994873 98.46484375 62.93994873 98.46484375 62.25994873 C101.37084636 61.00329895 103.26088959 60.25994873 106.46484375 60.25994873 C106.46484375 59.59994873 106.46484375 58.93994873 106.46484375 58.25994873 C107.35171875 57.70307373 108.23859375 57.14619873 109.15234375 56.57244873 C116.49515971 51.86196302 119.02275164 44.25774092 120.98046875 36.11541748 C121.46484375 34.25994873 121.46484375 34.25994873 122.46484375 32.25994873 C123.32571096 25.37301104 120.31084457 18.35553965 116.21484375 12.88494873 C112.8958993 9.71686539 109.6237087 8.0840123 105.46484375 6.25994873 C103.46484375 5.25994873 101.46484375 4.25994873 99.46484375 3.25994873 C99.79484375 2.59994873 100.12484375 1.93994873 100.46484375 1.25994873 C101.34527344 1.27155029 102.22570312 1.28315186 103.1328125 1.29510498 C104.29425781 1.30412842 105.45570313 1.31315186 106.65234375 1.32244873 C107.80089844 1.33405029 108.94945312 1.34565186 110.1328125 1.35760498 C113.37696036 1.36164886 113.37696036 1.36164886 116.140625 0.69354248 C118.70353492 0.21541979 120.0151623 0.44338825 122.46484375 1.25994873 C123.21121094 1.48811279 123.95757812 1.71627686 124.7265625 1.95135498 C132.68781892 4.81022806 138.92474369 9.21166425 143.46484375 16.44744873 C144.41082464 19.10801998 145.0659597 21.46776041 145.46484375 24.25994873 C145.56796875 24.92639404 145.67109375 25.59283936 145.77734375 26.27947998 C146.60033326 31.98896971 146.60033326 31.98896971 145.46484375 34.25994873 C145.49578125 35.68307373 145.49578125 35.68307373 145.52734375 37.13494873 C145.46288671 40.35780089 145.00185884 41.52747746 143.46484375 44.25994873 C142.77523413 46.2521543 142.10405318 48.25100479 141.46484375 50.25994873 C140.80484375 50.25994873 140.14484375 50.25994873 139.46484375 50.25994873 C139.23796875 50.98182373 139.01109375 51.70369873 138.77734375 52.44744873 C136.01366683 58.36961355 130.68290376 61.64744565 125.46484375 65.25994873 C125.13484375 65.58994873 124.80484375 65.91994873 124.46484375 66.25994873 C125.16609375 66.67244873 125.86734375 67.08494873 126.58984375 67.50994873 C127.53859375 68.08744873 128.48734375 68.66494873 129.46484375 69.25994873 C130.43421875 69.77557373 131.40359375 70.29119873 132.40234375 70.82244873 C137.42647593 74.82124781 140.61053961 80.20886252 142.33984375 86.38494873 C142.38109375 87.33369873 142.42234375 88.28244873 142.46484375 89.25994873 C142.52671875 90.55932373 142.58859375 91.85869873 142.65234375 93.19744873 C142.60733613 97.12811458 141.66655612 100.5134337 140.46484375 104.25994873 C140.29984375 105.14682373 140.13484375 106.03369873 139.96484375 106.94744873 C139.44115754 109.36949744 138.64873565 111.08948024 137.46484375 113.25994873 C136.72234375 114.80682373 136.72234375 114.80682373 135.96484375 116.38494873 C134.43570875 119.31579081 132.7800182 120.94477428 130.46484375 123.25994873 C129.80484375 124.12619873 129.14484375 124.99244873 128.46484375 125.88494873 C127.80484375 126.66869873 127.14484375 127.45244873 126.46484375 128.25994873 C125.80484375 128.25994873 125.14484375 128.25994873 124.46484375 128.25994873 C124.46484375 128.91994873 124.46484375 129.57994873 124.46484375 130.25994873 C122.7404401 131.24747937 121.01009349 132.22463679 119.27734375 133.19744873 C118.31441406 133.74272217 117.35148438 134.28799561 116.359375 134.84979248 C113.63084573 136.17907597 111.43783613 136.78585028 108.46484375 137.25994873 C107.33046875 137.61057373 106.19609375 137.96119873 105.02734375 138.32244873 C101.62354827 139.21818438 98.95378338 139.33748072 95.46484375 139.25994873 C94.84296677 139.42164551 94.22108978 139.58334229 93.58036804 139.74993896 C91.24358632 140.31328939 89.20634771 140.37322786 86.80395508 140.35760498 C85.8865303 140.35430176 84.96910553 140.35099854 84.02388 140.34759521 C83.04146835 140.33929688 82.0590567 140.33099854 81.046875 140.32244873 C80.0338884 140.31866211 79.02090179 140.31487549 77.97721863 140.31097412 C74.7438838 140.29875939 71.51063816 140.2801193 68.27734375 140.25994873 C64.01302343 140.23347597 59.74874603 140.21343457 55.484375 140.19744873 C54.49589066 140.18915039 53.50740631 140.18085205 52.4889679 140.17230225 C51.12701546 140.16734741 51.12701546 140.16734741 49.73754883 140.16229248 C48.9346492 140.15705566 48.13174957 140.15181885 47.30451965 140.14642334 C45.4468093 140.05724587 45.4468093 140.05724587 44.46484375 141.25994873 C41.36233174 141.34869008 38.28216255 141.37513328 35.1796875 141.35760498 C34.24886856 141.35619003 33.31804962 141.35477509 32.35902405 141.35331726 C29.37343184 141.34770045 26.38791346 141.33514513 23.40234375 141.32244873 C21.38346462 141.31743589 19.36458432 141.31287261 17.34570312 141.30877686 C12.38538803 141.29772556 7.42512843 141.28044968 2.46484375 141.25994873 C1.859375 138.91619873 1.859375 138.91619873 1.46484375 136.25994873 C5.40650976 130.42044354 12.09268967 128.64823614 18.46484375 126.25994873 C14.87427755 126.69081667 11.64020653 127.19924623 8.21484375 128.38494873 C5.46484375 129.25994873 5.46484375 129.25994873 2.46484375 128.25994873 C2.83318388 125.60789977 3.15161285 124.52154817 5.2421875 122.77557373 C5.95503906 122.35791748 6.66789062 121.94026123 7.40234375 121.50994873 C8.11261719 121.08197998 8.82289063 120.65401123 9.5546875 120.21307373 C11.46484375 119.25994873 11.46484375 119.25994873 13.46484375 119.25994873 C13.46484375 118.26994873 13.46484375 117.27994873 13.46484375 116.25994873 C12.78421875 116.85807373 12.10359375 117.45619873 11.40234375 118.07244873 C8.14809541 120.49582516 5.2254815 121.78518883 1.46484375 123.25994873 C0.80484375 122.26994873 0.14484375 121.27994873 -0.53515625 120.25994873 C0.12484375 119.26994873 0.78484375 118.27994873 1.46484375 117.25994873 C2.12484375 117.25994873 2.78484375 117.25994873 3.46484375 117.25994873 C3.70203125 116.71854248 3.93921875 116.17713623 4.18359375 115.61932373 C5.80832132 112.62744736 7.81503145 110.14835474 9.96484375 107.50994873 C10.75890625 106.52510498 11.55296875 105.54026123 12.37109375 104.52557373 C13.06203125 103.77791748 13.75296875 103.03026123 14.46484375 102.25994873 C15.12484375 102.25994873 15.78484375 102.25994873 16.46484375 102.25994873 C16.7278125 101.67858154 16.99078125 101.09721436 17.26171875 100.49822998 C18.52399169 98.14991051 19.92932936 96.42197028 21.71484375 94.44744873 C22.33359375 93.75651123 22.95234375 93.06557373 23.58984375 92.35369873 C24.20859375 91.66276123 24.82734375 90.97182373 25.46484375 90.25994873 C27.01889669 88.44688697 28.56358419 86.62632591 30.10546875 84.80291748 C31.03589532 83.74682985 32.00349063 82.72267245 33 81.72869873 C35.00716616 79.71618013 36.7130983 77.49493431 38.46484375 75.25994873 C33.20322329 79.56491092 28.43569028 84.22407275 23.72949219 89.12030029 C21.12467877 91.78636341 18.84415953 93.70750204 15.46484375 95.25994873 C14.65955486 97.30995744 14.65955486 97.30995744 14.46484375 99.25994873 C13.80484375 99.25994873 13.14484375 99.25994873 12.46484375 99.25994873 C12.46484375 99.91994873 12.46484375 100.57994873 12.46484375 101.25994873 C10.08984375 103.88494873 10.08984375 103.88494873 7.46484375 106.25994873 C6.80484375 106.25994873 6.14484375 106.25994873 5.46484375 106.25994873 C5.13484375 107.24994873 4.80484375 108.23994873 4.46484375 109.25994873 C3.80484375 109.25994873 3.14484375 109.25994873 2.46484375 109.25994873 C2.46484375 109.91994873 2.46484375 110.57994873 2.46484375 111.25994873 C1.80484375 111.25994873 1.14484375 111.25994873 0.46484375 111.25994873 C0.46484375 111.91994873 0.46484375 112.57994873 0.46484375 113.25994873 C-0.19515625 113.25994873 -0.85515625 113.25994873 -1.53515625 113.25994873 C-1.86515625 114.24994873 -2.19515625 115.23994873 -2.53515625 116.25994873 C-4.18515625 115.92994873 -5.83515625 115.59994873 -7.53515625 115.25994873 C-4.53005079 109.09983944 -1.26371472 103.13834862 2.15234375 97.19744873 C2.67473633 96.28583984 3.19712891 95.37423096 3.73535156 94.43499756 C8.21118465 86.64871379 12.79753244 78.93272565 17.46484375 71.25994873 C17.13484375 70.92994873 16.80484375 70.59994873 16.46484375 70.25994873 C16.06394531 71.09783936 15.66304687 71.93572998 15.25 72.79901123 C13.31518857 76.55008985 11.175165 80.08297034 8.90234375 83.63494873 C8.50337891 84.27561279 8.10441406 84.91627686 7.69335938 85.57635498 C6.67281445 87.1744704 5.57472951 88.72253582 4.46484375 90.25994873 C3.80484375 90.25994873 3.14484375 90.25994873 2.46484375 90.25994873 C2.34334961 90.8478418 2.22185547 91.43573486 2.09667969 92.04144287 C1.45405768 94.29782083 0.64658315 95.80983734 -0.64453125 97.75604248 C-1.28261719 98.71800537 -1.28261719 98.71800537 -1.93359375 99.69940186 C-2.37960938 100.35875732 -2.825625 101.01811279 -3.28515625 101.69744873 C-3.93097656 102.68068115 -3.93097656 102.68068115 -4.58984375 103.68377686 C-7.25177924 107.65675542 -10.03854094 110.99602185 -13.53515625 114.25994873 C-14.19515625 113.92994873 -14.85515625 113.59994873 -15.53515625 113.25994873 C-14.96244765 107.83689324 -13.60364984 103.25332227 -11.59765625 98.19744873 C-8.00772348 89.95379569 -8.00772348 89.95379569 -6.53515625 81.25994873 C-9.36292847 88.26107894 -9.36292847 88.26107894 -12.03515625 95.32244873 C-14.45114186 101.82197525 -17.37224482 108.09227143 -20.53515625 114.25994873 C-21.19515625 114.25994873 -21.85515625 114.25994873 -22.53515625 114.25994873 C-23.03015625 115.24994873 -23.03015625 115.24994873 -23.53515625 116.25994873 C-24.53515625 115.25994873 -24.53515625 115.25994873 -24.66015625 112.75994873 C-24.53515625 110.25994873 -24.53515625 110.25994873 -23.53515625 109.25994873 C-23.53515625 107.35236821 -23.53881304 105.44467343 -23.56640625 103.53729248 C-23.51869973 100.06067948 -23.02657131 96.69985415 -22.53515625 93.25994873 C-21.87515625 93.25994873 -21.21515625 93.25994873 -20.53515625 93.25994873 C-20.74140625 92.62057373 -20.94765625 91.98119873 -21.16015625 91.32244873 C-21.68557078 87.03156344 -20.59332159 83.40887039 -19.53515625 79.25994873 C-18.73764701 75.62685107 -18.2333218 72.01512929 -17.81640625 68.32244873 C-17.61261123 66.82795188 -17.34345941 65.3419006 -17.03515625 63.86541748 C-16.32400264 60.15964047 -16.10123607 56.44446631 -15.81640625 52.68572998 C-15.53515625 50.25994873 -15.53515625 50.25994873 -14.53515625 48.25994873 C-14.33307681 46.80609943 -14.17111126 45.34646511 -14.03515625 43.88494873 C-13.75690953 40.91367123 -13.32423278 38.14007807 -12.53515625 35.25994873 C-11.87515625 35.25994873 -11.21515625 35.25994873 -10.53515625 35.25994873 C-10.72078125 34.12557373 -10.90640625 32.99119873 -11.09765625 31.82244873 C-11.68053196 27.2251192 -11.43063859 22.80700905 -10.53515625 18.25994873 C-10.20515625 17.92994873 -9.87515625 17.59994873 -9.53515625 17.25994873 C-9.32496435 15.49375286 -9.16672188 13.72123535 -9.03515625 11.94744873 C-8.14551884 0.04854837 -8.14551884 0.04854837 0 0 Z M8.46484375 41.25994873 C9.46484375 43.25994873 9.46484375 43.25994873 9.46484375 43.25994873 Z M2.46484375 59.25994873 C3.46484375 61.25994873 3.46484375 61.25994873 3.46484375 61.25994873 Z M20.46484375 64.25994873 C20.46484375 65.24994873 20.46484375 66.23994873 20.46484375 67.25994873 C21.12484375 66.59994873 21.78484375 65.93994873 22.46484375 65.25994873 C21.80484375 64.92994873 21.14484375 64.59994873 20.46484375 64.25994873 Z M-4.53515625 75.25994873 C-5.52515625 75.75494873 -5.52515625 75.75494873 -6.53515625 76.25994873 C-6.20515625 76.91994873 -5.87515625 77.57994873 -5.53515625 78.25994873 C-4.87515625 77.92994873 -4.21515625 77.59994873 -3.53515625 77.25994873 C-3.86515625 76.59994873 -4.19515625 75.93994873 -4.53515625 75.25994873 Z M-5.53515625 78.25994873 C-5.20515625 79.24994873 -4.87515625 80.23994873 -4.53515625 81.25994873 C-4.53515625 80.26994873 -4.53515625 79.27994873 -4.53515625 78.25994873 C-4.86515625 78.25994873 -5.19515625 78.25994873 -5.53515625 78.25994873 Z M-13.53515625 93.25994873 C-12.53515625 95.25994873 -12.53515625 95.25994873 -12.53515625 95.25994873 Z M-11.53515625 100.25994873 C-10.53515625 102.25994873 -10.53515625 102.25994873 -10.53515625 102.25994873 Z M24.46484375 109.25994873 C25.12484375 109.91994873 25.78484375 110.57994873 26.46484375 111.25994873 C26.46484375 110.59994873 26.46484375 109.93994873 26.46484375 109.25994873 C25.80484375 109.25994873 25.14484375 109.25994873 24.46484375 109.25994873 Z M21.46484375 111.25994873 C21.46484375 112.24994873 21.46484375 113.23994873 21.46484375 114.25994873 C22.12484375 113.26994873 22.78484375 112.27994873 23.46484375 111.25994873 C22.80484375 111.25994873 22.14484375 111.25994873 21.46484375 111.25994873 Z M17.46484375 112.25994873 C16.80484375 113.57994873 16.14484375 114.89994873 15.46484375 116.25994873 C17.11484375 115.59994873 18.76484375 114.93994873 20.46484375 114.25994873 C19.47484375 113.59994873 18.48484375 112.93994873 17.46484375 112.25994873 Z M28.46484375 121.25994873 C29.46484375 123.25994873 29.46484375 123.25994873 29.46484375 123.25994873 Z M31.46484375 121.25994873 C31.79484375 121.91994873 32.12484375 122.57994873 32.46484375 123.25994873 C32.79484375 122.59994873 33.12484375 121.93994873 33.46484375 121.25994873 C32.80484375 121.25994873 32.14484375 121.25994873 31.46484375 121.25994873 Z M23.46484375 123.25994873 C27.46484375 124.25994873 27.46484375 124.25994873 27.46484375 124.25994873 Z M79.46484375 133.25994873 C79.13484375 133.91994873 78.80484375 134.57994873 78.46484375 135.25994873 C79.12484375 135.25994873 79.78484375 135.25994873 80.46484375 135.25994873 C80.13484375 134.59994873 79.80484375 133.93994873 79.46484375 133.25994873 Z " fill="#F47D17" transform="translate(189.53515625,178.74005126953125)"/>
<path d="M0 0 C3.5578125 -0.12375 3.5578125 -0.12375 7.1875 -0.25 C7.92508545 -0.28641602 8.6626709 -0.32283203 9.42260742 -0.36035156 C12.99066318 -0.42010023 14.90996755 -0.05539546 17.96484375 1.82421875 C20 4 20 4 20.375 7.0625 C20 10 20 10 19 13 C19.474375 13.598125 19.94875 14.19625 20.4375 14.8125 C22.55182586 17.7725562 22.51019876 19.42860868 22 23 C20.55078125 25.671875 20.55078125 25.671875 18 28 C14.89072966 28.61793783 11.90418616 28.47144713 8.75 28.3125 C5.8625 28.209375 2.975 28.10625 0 28 C0 18.76 0 9.52 0 0 Z M6 5 C6 6.98 6 8.96 6 11 C8.31 11 10.62 11 13 11 C13.6814823 9.10820797 13.6814823 9.10820797 14 7 C12.10244856 4.65026182 12.10244856 4.65026182 8.875 4.875 C7.92625 4.91625 6.9775 4.9575 6 5 Z M6 16 C6 18.31 6 20.62 6 23 C8.64 23 11.28 23 14 23 C14.66 21.68 15.32 20.36 16 19 C15.34 18.01 14.68 17.02 14 16 C12.02252878 15.63702064 12.02252878 15.63702064 9.875 15.8125 C8.59625 15.874375 7.3175 15.93625 6 16 Z " fill="#FF914D" transform="translate(94,337)"/>
<path d="M0 0 C2.99700073 0.49570164 5.2390812 -0.65905179 8.0546875 -1.66015625 C10.8671875 -0.91015625 10.8671875 -0.91015625 13.0546875 0.33984375 C14.202956 2.63638075 14.17029925 3.92297542 14.15234375 6.47265625 C14.14912109 7.27832031 14.14589844 8.08398438 14.14257812 8.9140625 C14.13419922 9.75582031 14.12582031 10.59757812 14.1171875 11.46484375 C14.11267578 12.31433594 14.10816406 13.16382813 14.10351562 14.0390625 C14.09171624 16.13935284 14.07378056 18.23960705 14.0546875 20.33984375 C12.0746875 20.33984375 10.0946875 20.33984375 8.0546875 20.33984375 C7.7246875 15.38984375 7.3946875 10.43984375 7.0546875 5.33984375 C5.7346875 5.66984375 4.4146875 5.99984375 3.0546875 6.33984375 C2.7246875 10.95984375 2.3946875 15.57984375 2.0546875 20.33984375 C0.0746875 20.33984375 -1.9053125 20.33984375 -3.9453125 20.33984375 C-4.2753125 15.05984375 -4.6053125 9.77984375 -4.9453125 4.33984375 C-6.2653125 4.66984375 -7.5853125 4.99984375 -8.9453125 5.33984375 C-9.9994643 8.50229916 -10.25806922 11.20932593 -10.5078125 14.52734375 C-10.59160156 15.61402344 -10.67539062 16.70070313 -10.76171875 17.8203125 C-10.82230469 18.65175781 -10.88289063 19.48320312 -10.9453125 20.33984375 C-12.9253125 20.33984375 -14.9053125 20.33984375 -16.9453125 20.33984375 C-16.9453125 13.40984375 -16.9453125 6.47984375 -16.9453125 -0.66015625 C-14.27864583 -0.66015625 -11.61197917 -0.66015625 -8.9453125 -0.66015625 C-5.35104944 -1.85824394 -3.54277111 -0.99275454 0 0 Z " fill="#FF914D" transform="translate(370.9453125,344.66015625)"/>
<path d="M0 0 C2.31 0 4.62 0 7 0 C7 9.57 7 19.14 7 29 C4.36 29 1.72 29 -1 29 C-2.2375 29.20625 -3.475 29.4125 -4.75 29.625 C-8.11740302 30.0135465 -9.35577701 30.05661788 -12 28 C-14.89926278 23.33187292 -14.63794456 18.31620469 -14 13 C-12.15625633 9.58565987 -11.14005662 8.39901982 -7.5 7.125 C-5.06614092 7.00330705 -3.30045905 7.23318032 -1 8 C-0.67 5.36 -0.34 2.72 0 0 Z M-6 13 C-8.37994368 14.94332332 -8.37994368 14.94332332 -8.25 18.5 C-8.37994368 22.05667668 -8.37994368 22.05667668 -6 24 C-3.41645782 24.16687448 -3.41645782 24.16687448 -1 24 C0.50662097 20.98675805 0.17770373 18.31713623 0 15 C-0.66 14.34 -1.32 13.68 -2 13 C-3.32 13 -4.64 13 -6 13 Z " fill="#FF914D" transform="translate(195,336)"/>
<path d="M0 0 C1.98 0 3.96 0 6 0 C6 9.57 6 19.14 6 29 C3.36 29 0.72 29 -2 29 C-3.216875 29.2475 -4.43375 29.495 -5.6875 29.75 C-9 30 -9 30 -11.875 28.1875 C-14.87612466 25.09810697 -15.17430867 23.39467663 -15.25 19.1875 C-15.18317141 14.97729889 -15.04959409 12.1479681 -12 9 C-8.5625 7.5625 -8.5625 7.5625 -5 7 C-3.68 7.66 -2.36 8.32 -1 9 C-0.67 6.03 -0.34 3.06 0 0 Z M-7 13 C-9.38798682 15.90585687 -9.38798682 15.90585687 -8.6875 19.625 C-8.35886877 22.82504312 -8.35886877 22.82504312 -7 24 C-5.33382885 24.04063832 -3.66611905 24.042721 -2 24 C-0.44863214 21.53606281 0.03039129 20.31910854 -0.25 17.375 C-0.8484338 14.84399771 -0.8484338 14.84399771 -3 13 C-4.32 13 -5.64 13 -7 13 Z " fill="#FF914D" transform="translate(321,336)"/>
<path d="M0 0 C2.64 0 5.28 0 8 0 C17 23.73786408 17 23.73786408 17 28 C15.02 28 13.04 28 11 28 C10.34 26.02 9.68 24.04 9 22 C5.7 22 2.4 22 -1 22 C-1.66 23.98 -2.32 25.96 -3 28 C-4.98 28 -6.96 28 -9 28 C-7.67554915 21.37105659 -5.78331885 15.24709958 -3.375 8.9375 C-2.88773438 7.6390918 -2.88773438 7.6390918 -2.390625 6.31445312 C-1.59908318 4.20755504 -0.80216278 2.10287198 0 0 Z M3 9 C2.34 11.64 1.68 14.28 1 17 C2.98 17 4.96 17 7 17 C6.34 14.36 5.68 11.72 5 9 C4.34 9 3.68 9 3 9 Z " fill="#FF914D" transform="translate(244,337)"/>
<path d="M0 0 C2.31 0 4.62 0 7 0 C8.32 3.63 9.64 7.26 11 11 C12.66832577 8.49751135 13.62381674 6.58850813 14.625 3.8125 C14.88539063 3.09707031 15.14578125 2.38164062 15.4140625 1.64453125 C15.60742188 1.10183594 15.80078125 0.55914062 16 0 C17.98 0 19.96 0 22 0 C20.69862095 6.69569636 18.74020502 12.67314421 16.0625 18.9375 C15.71509766 19.78634766 15.36769531 20.63519531 15.00976562 21.50976562 C14.66751953 22.31994141 14.32527344 23.13011719 13.97265625 23.96484375 C13.66593994 24.6930835 13.35922363 25.42132324 13.04321289 26.17163086 C12 28 12 28 9 30 C6.73828125 30.1953125 6.73828125 30.1953125 4.3125 30.125 C3.10013672 30.09792969 3.10013672 30.09792969 1.86328125 30.0703125 C1.24839844 30.04710937 0.63351562 30.02390625 0 30 C0.33 28.02 0.66 26.04 1 24 C2.65 24 4.3 24 6 24 C7.19309111 20.55559783 6.80482315 18.62372653 5.56640625 15.234375 C5.24736328 14.34492188 4.92832031 13.45546875 4.59960938 12.5390625 C4.25736328 11.61867188 3.91511719 10.69828125 3.5625 9.75 C3.22412109 8.81414062 2.88574219 7.87828125 2.53710938 6.9140625 C1.70092178 4.60571366 0.85495944 2.30144809 0 0 Z " fill="#FF914D" transform="translate(387,344)"/>
<path d="M0 0 C2.86970265 4.03551935 3 5.94342379 3 11 C-1.62 11 -6.24 11 -11 11 C-10.01 12.485 -10.01 12.485 -9 14 C-6.3918596 14.27454109 -4.349442 14.08985651 -1.8125 13.4375 C0 13 0 13 2 14 C1.75 16.375 1.75 16.375 1 19 C-2.29347375 21.66011341 -5.93424686 21.35664501 -10 21 C-13.5386994 19.34860695 -14.81070153 18.28394771 -17 15 C-17.79057216 9.62410934 -17.97758814 5.35776131 -14.75 0.875 C-9.77345623 -2.51809802 -5.43805909 -2.54007006 0 0 Z M-9 4 C-9.99 5.485 -9.99 5.485 -11 7 C-8.36 7 -5.72 7 -3 7 C-3.33 6.01 -3.66 5.02 -4 4 C-6.41619823 3.74969023 -6.41619823 3.74969023 -9 4 Z " fill="#FF914D" transform="translate(348,345)"/>
<path d="M0 0 C2.35119399 3.52679099 2.21443452 5.02879485 2.125 9.1875 C2.10695313 10.27417969 2.08890625 11.36085938 2.0703125 12.48046875 C2.04710937 13.31191406 2.02390625 14.14335937 2 15 C2.66 15 3.32 15 4 15 C4.33 16.65 4.66 18.3 5 20 C2.08517222 20.80967438 0.53886783 21.21845993 -2.3125 20.0625 C-3.1478125 19.5365625 -3.1478125 19.5365625 -4 19 C-4.66 19.66 -5.32 20.32 -6 21 C-9.24890907 21.35314229 -11.37896648 21.27783078 -14.375 19.9375 C-16 18 -16 18 -16.4375 14.5 C-16 11 -16 11 -15 9.1875 C-11.84776326 7.31585944 -8.577484 6.76241462 -5 6 C-5 5.67 -5 5.34 -5 5 C-8.19902639 4.91113816 -10.92677456 5.08941469 -14 6 C-14.66 4.68 -15.32 3.36 -16 2 C-10.60817702 -2.59303439 -6.55885202 -2.4750385 0 0 Z M-10 13 C-9.67 13.99 -9.34 14.98 -9 16 C-7.68 15.67 -6.36 15.34 -5 15 C-4.67 13.68 -4.34 12.36 -4 11 C-7.18490007 10.7226499 -7.18490007 10.7226499 -10 13 Z " fill="#FF914D" transform="translate(300,345)"/>
<path d="M0 0 C2 2 2 2 2.1953125 5.0390625 C2.17210937 6.22242188 2.14890625 7.40578125 2.125 8.625 C2.10695312 9.81351562 2.08890625 11.00203125 2.0703125 12.2265625 C2.04710937 13.14179688 2.02390625 14.05703125 2 15 C2.99 15.33 3.98 15.66 5 16 C5 17.32 5 18.64 5 20 C1.55465996 20.86133501 -0.60379646 20.93688374 -4 20 C-4.66 20.33 -5.32 20.66 -6 21 C-9.56500476 21.38750052 -11.38480006 21.39435894 -14.4375 19.4375 C-16 17 -16 17 -15.875 13.375 C-15 10 -15 10 -13 8 C-10.94185004 7.39391903 -8.87952543 6.98825831 -6.77734375 6.5625 C-5.89755859 6.2840625 -5.89755859 6.2840625 -5 6 C-4.67 5.34 -4.34 4.68 -4 4 C-7.3 4.66 -10.6 5.32 -14 6 C-14.33 4.35 -14.66 2.7 -15 1 C-9.57277414 -2.61815058 -6.08694887 -2.18211375 0 0 Z M-10 13 C-9.67 13.99 -9.34 14.98 -9 16 C-7.68 15.67 -6.36 15.34 -5 15 C-4.67 13.68 -4.34 12.36 -4 11 C-7.18490007 10.7226499 -7.18490007 10.7226499 -10 13 Z " fill="#FF914D" transform="translate(221,345)"/>
<path d="M0 0 C2.60832416 3.62267244 2.41603921 7.26967168 2.125 11.5625 C0.93374943 14.719314 0.04364736 16.84070564 -2.625 18.9375 C-6.98755149 20.14931986 -10.56554541 20.17357881 -14.6875 18.25 C-17.42581867 16.13758274 -18.73744576 14.49786886 -19.24609375 11.0390625 C-19.42518939 3.34848485 -19.42518939 3.34848485 -16.6875 -0.5625 C-11.10594239 -4.28353841 -5.53443255 -4.24306496 0 0 Z M-10.875 2.5625 C-13.17663882 6.01495824 -13.21990322 7.50988713 -12.875 11.5625 C-11.03616119 13.84978734 -11.03616119 13.84978734 -8.25 13.6875 C-7.46625 13.64625 -6.6825 13.605 -5.875 13.5625 C-4.57440936 10.83064404 -4.57440936 10.83064404 -3.875 7.5625 C-4.83168033 4.63347697 -4.83168033 4.63347697 -6.875 2.5625 C-8.195 2.5625 -9.515 2.5625 -10.875 2.5625 Z " fill="#FF914D" transform="translate(175.875,346.4375)"/>
<path d="M0 0 C1.44207941 2.88415883 1.09394887 5.41721528 1.0625 8.625 C1.05347656 9.81351562 1.04445312 11.00203125 1.03515625 12.2265625 C1.02355469 13.14179688 1.01195312 14.05703125 1 15 C1.99 15 2.98 15 4 15 C4 16.65 4 18.3 4 20 C0.55465996 20.86133501 -1.60379646 20.93688374 -5 20 C-5.66 20.33 -6.32 20.66 -7 21 C-12.27650728 21.44906445 -12.27650728 21.44906445 -14.8125 19.875 C-16.51914046 17.18030454 -16.93498241 15.18586196 -17 12 C-14.20920096 7.81380143 -10.68445808 7.23740402 -6 6 C-5.67 5.34 -5.34 4.68 -5 4 C-8.3 4.66 -11.6 5.32 -15 6 C-15.33 4.68 -15.66 3.36 -16 2 C-10.58034731 -2.61674118 -6.59946712 -2.41134375 0 0 Z M-10 12 C-10 13.32 -10 14.64 -10 16 C-8.35 15.67 -6.7 15.34 -5 15 C-5 13.68 -5 12.36 -5 11 C-7.9254644 10.7763932 -7.9254644 10.7763932 -10 12 Z " fill="#FF914D" transform="translate(135,345)"/>
<path d="M0 0 C2 2 2 2 2 5 C0.35 5.66 -1.3 6.32 -3 7 C-3.33 6.34 -3.66 5.68 -4 5 C-5.65 5 -7.3 5 -9 5 C-10.04214691 9.61507774 -10.04214691 9.61507774 -9 14 C-7.35 14 -5.7 14 -4 14 C-3.67 13.34 -3.34 12.68 -3 12 C-0.5625 12.375 -0.5625 12.375 2 13 C2.33 13.66 2.66 14.32 3 15 C-0.75 19.875 -0.75 19.875 -3 21 C-7.97067782 21.3751455 -11.05151502 21.15878799 -15 18 C-17.5411488 13.7945777 -17.81296575 9.79483879 -17 5 C-15.30944603 1.63286359 -13.14893286 -0.51623879 -9.625 -2 C-6.11988142 -2 -3.28872061 -1.17897531 0 0 Z " fill="#FF914D" transform="translate(280,345)"/>
<path d="M0 0 C0.99 2.475 0.99 2.475 2 5 C1.01 5.33 0.02 5.66 -1 6 C2.96 6.33 6.92 6.66 11 7 C9 9 9 9 7.09580994 9.23377991 C6.32161209 9.22632248 5.54741425 9.21886505 4.74975586 9.21118164 C3.87222153 9.20780289 2.99468719 9.20442413 2.09056091 9.20094299 C1.14157425 9.18748337 0.19258759 9.17402374 -0.78515625 9.16015625 C-2.24229286 9.1523539 -2.24229286 9.1523539 -3.72886658 9.14439392 C-6.84022765 9.12653615 -9.95126384 9.09535082 -13.0625 9.0625 C-16.17727509 9.03493986 -19.29200523 9.01023407 -22.40684509 8.99131775 C-24.34777482 8.9790012 -26.28867894 8.96134096 -28.22950745 8.93800354 C-29.10388962 8.93147263 -29.97827179 8.92494171 -30.87915039 8.91821289 C-32.03925377 8.90583336 -32.03925377 8.90583336 -33.22279358 8.89320374 C-35.02545423 8.80431476 -35.02545423 8.80431476 -36 10 C-39.10251201 10.08874135 -42.1826812 10.11518455 -45.28515625 10.09765625 C-46.21597519 10.0962413 -47.14679413 10.09482635 -48.1058197 10.09336853 C-51.09141191 10.08775172 -54.07693029 10.0751964 -57.0625 10.0625 C-59.08137913 10.05748716 -61.10025943 10.05292388 -63.11914062 10.04882812 C-68.07945572 10.03777683 -73.03971532 10.02050095 -78 10 C-78.625 7.6875 -78.625 7.6875 -79 5 C-78.34 4.01 -77.68 3.02 -77 2 C-76.34 2.33 -75.68 2.66 -75 3 C-75.66 4.32 -76.32 5.64 -77 7 C-69.92377802 6.90641799 -62.84785638 6.79897489 -55.77197266 6.68261719 C-53.37293066 6.6447156 -50.9738393 6.60980107 -48.57470703 6.578125 C-35.69109484 6.40598488 -22.96532437 6.09041934 -10.17919922 4.41552734 C-7 4 -7 4 -5 4 C-4.67 3.01 -4.34 2.02 -4 1 C-2 0 -2 0 0 0 Z M-1 2 C-1.33 2.66 -1.66 3.32 -2 4 C-1.34 4 -0.68 4 0 4 C-0.33 3.34 -0.66 2.68 -1 2 Z " fill="#FBB027" transform="translate(270,310)"/>
<path d="M0 0 C0.77512939 0.00247742 1.55025879 0.00495483 2.34887695 0.00750732 C3.16525635 0.00239639 3.98163574 -0.00271454 4.82275391 -0.00798035 C7.52945219 -0.02191506 10.235897 -0.02091685 12.94262695 -0.01861572 C14.81827897 -0.02250021 16.6939301 -0.02683436 18.56958008 -0.03160095 C22.50385386 -0.03907128 26.43803792 -0.03876578 30.37231445 -0.0335083 C35.42344139 -0.02770919 40.47420219 -0.04465136 45.52526855 -0.06785297 C49.39935466 -0.08255651 53.27335187 -0.0834667 57.14746094 -0.08034325 C59.01026129 -0.08085805 60.87306642 -0.08612547 62.73583984 -0.09615517 C65.33626384 -0.1084386 67.93596525 -0.10177738 70.53637695 -0.09014893 C71.31150635 -0.09779266 72.08663574 -0.1054364 72.88525391 -0.11331177 C75.02661133 -0.09205627 75.02661133 -0.09205627 78.44262695 0.28216553 C79.43262695 1.76716553 79.43262695 1.76716553 80.44262695 3.28216553 C52.39262695 3.61216553 24.34262695 3.94216553 -4.55737305 4.28216553 C-5.21737305 6.92216553 -5.87737305 9.56216553 -6.55737305 12.28216553 C-7.21737305 11.95216553 -7.87737305 11.62216553 -8.55737305 11.28216553 C-8.64576431 8.10007996 -8.60089002 5.30836475 -7.55737305 2.28216553 C-5.03098173 -0.24422579 -3.4469373 0.03455878 0 0 Z " fill="#F9470E" transform="translate(189.557373046875,178.71783447265625)"/>
<path d="M0 0 C4.62 0 9.24 0 14 0 C14 1.98 14 3.96 14 6 C12.02 6.33 10.04 6.66 8 7 C7.67 11.62 7.34 16.24 7 21 C4.69 21 2.38 21 0 21 C0 14.07 0 7.14 0 0 Z " fill="#FF914D" transform="translate(141,344)"/>
<path d="M0 0 C0.66 0.33 1.32 0.66 2 1 C0.35 2.98 -1.3 4.96 -3 7 C-1.68 7.33 -0.36 7.66 1 8 C1 8.66 1 9.32 1 10 C-3.32059823 11.09845718 -7.61667943 12.17812739 -12 13 C-12.33 11.68 -12.66 10.36 -13 9 C-11.54550599 7.9944239 -10.08627557 6.99569565 -8.625 6 C-7.81289062 5.443125 -7.00078125 4.88625 -6.1640625 4.3125 C-4 3 -4 3 -2 3 C-2 2.34 -2 1.68 -2 1 C-1.34 0.67 -0.68 0.34 0 0 Z " fill="#F88C38" transform="translate(205,295)"/>
<path d="M0 0 C0.66 1.65 1.32 3.3 2 5 C1.01 5.33 0.02 5.66 -1 6 C2.96 6.33 6.92 6.66 11 7 C9 9 9 9 6.56982422 9.13525391 C5.07733154 9.05670166 5.07733154 9.05670166 3.5546875 8.9765625 C2.47832031 8.925 1.40195312 8.8734375 0.29296875 8.8203125 C-1.39892578 8.72363281 -1.39892578 8.72363281 -3.125 8.625 C-4.82849609 8.53992188 -4.82849609 8.53992188 -6.56640625 8.453125 C-9.3782163 8.31135306 -12.18917281 8.15991439 -15 8 C-15.33 7.01 -15.66 6.02 -16 5 C-10.555 4.505 -10.555 4.505 -5 4 C-4.67 3.01 -4.34 2.02 -4 1 C-2 0 -2 0 0 0 Z M-1 2 C-1.33 2.66 -1.66 3.32 -2 4 C-1.34 4 -0.68 4 0 4 C-0.33 3.34 -0.66 2.68 -1 2 Z " fill="#F78D39" transform="translate(270,310)"/>
<path d="M0 0 C0.66 0.33 1.32 0.66 2 1 C1 4 1 4 -1.4375 5.375 C-4.5780213 7.36655009 -4.68446289 8.59508042 -6 12 C-7.88282848 14.44107951 -9.91778181 16.72789399 -12 19 C-12.99 18.67 -13.98 18.34 -15 18 C-15 16.68 -15 15.36 -15 14 C-14.34 14 -13.68 14 -13 14 C-13 13.34 -13 12.68 -13 12 C-12.071875 11.87625 -12.071875 11.87625 -11.125 11.75 C-8.84947868 11.22352093 -8.84947868 11.22352093 -8.09375 9.1875 C-6.84731 6.69462001 -5.37662839 5.177494 -3.375 3.25 C-2.74335938 2.63640625 -2.11171875 2.0228125 -1.4609375 1.390625 C-0.73777344 0.70226562 -0.73777344 0.70226562 0 0 Z " fill="#F98E39" transform="translate(243,235)"/>
<path d="M0 0 C0.66 0.66 1.32 1.32 2 2 C1.45859375 2.93972656 1.45859375 2.93972656 0.90625 3.8984375 C0.4421875 4.71570313 -0.021875 5.53296875 -0.5 6.375 C-0.9640625 7.18710937 -1.428125 7.99921875 -1.90625 8.8359375 C-3.15035859 10.89336874 -3.15035859 10.89336874 -3 13 C-2.34 13 -1.68 13 -1 13 C-1 13.66 -1 14.32 -1 15 C-1.66 15 -2.32 15 -3 15 C-3.33 15.99 -3.66 16.98 -4 18 C-5.65 17.67 -7.3 17.34 -9 17 C-6.16805143 11.23121589 -3.16032456 5.59532872 0 0 Z " fill="#F9903F" transform="translate(191,277)"/>
<path d="M0 0 C0.66 0.66 1.32 1.32 2 2 C1.88679697 5.28288776 0.71715137 6.30354487 -1.5625 8.75 C-2.7690625 9.86375 -2.7690625 9.86375 -4 11 C-4.66 10.67 -5.32 10.34 -6 10 C-5.125 3.25 -5.125 3.25 -4 1 C-2.0625 0.25 -2.0625 0.25 0 0 Z " fill="#F7863B" transform="translate(180,282)"/>
<path d="M0 0 C-0.66 0 -1.32 0 -2 0 C-2.33 0.66 -2.66 1.32 -3 2 C-5.4375 3.1875 -5.4375 3.1875 -8 4 C-8.66 3.67 -9.32 3.34 -10 3 C-10.33 3.66 -10.66 4.32 -11 5 C-11.99 5 -12.98 5 -14 5 C-14.99 6.485 -14.99 6.485 -16 8 C-16.99 8 -17.98 8 -19 8 C-18.67 6.35 -18.34 4.7 -18 3 C-15.75376301 2.30030318 -13.50283586 1.61564957 -11.25 0.9375 C-9.99703125 0.55464844 -8.7440625 0.17179687 -7.453125 -0.22265625 C-4.3261992 -0.92656828 -2.90533954 -1.16653785 0 0 Z " fill="#F89548" transform="translate(242,294)"/>
<path d="M0 0 C0.33 0 0.66 0 1 0 C1 2.64 1 5.28 1 8 C1.99 8 2.98 8 4 8 C3.67 9.65 3.34 11.3 3 13 C2.01 13.33 1.02 13.66 0 14 C-0.33 14.66 -0.66 15.32 -1 16 C-2 15 -2 15 -2.125 12.5 C-2 10 -2 10 -1 9 C-1 7.68 -1 6.36 -1 5 C-1 1 -1 1 0 0 Z " fill="#F8903F" transform="translate(167,279)"/>
<path d="M0 0 C0 0.66 0 1.32 0 2 C-6.93 2 -13.86 2 -21 2 C-21 1.67 -21 1.34 -21 1 C-18.4385681 0.6358011 -15.87641581 0.28337202 -13.3125 -0.0625 C-12.59126953 -0.16626953 -11.87003906 -0.27003906 -11.12695312 -0.37695312 C-7.15920043 -0.9023633 -3.92114889 -1.10596507 0 0 Z " fill="#F58629" transform="translate(255,316)"/>
<path d="M0 0 C0.99 0.495 0.99 0.495 2 1 C3.29411765 8.41176471 3.29411765 8.41176471 2 11 C1.960008 12.99960012 1.95653201 15.00047242 2 17 C0 15 0 15 -0.1953125 11.5234375 C-0.18201493 10.14049032 -0.15816232 8.75761346 -0.125 7.375 C-0.11597656 6.66859375 -0.10695313 5.9621875 -0.09765625 5.234375 C-0.07407603 3.48943902 -0.03820461 1.74467705 0 0 Z " fill="#F9A249" transform="translate(333,202)"/>
<path d="M0 0 C1.32 0 2.64 0 4 0 C3.49202991 4.3177458 2.80317221 8.03302114 1 12 C0.01 10.68 -0.98 9.36 -2 8 C-1.34 8 -0.68 8 0 8 C-0.2784375 6.2984375 -0.2784375 6.2984375 -0.5625 4.5625 C-0.7790625 2.7990625 -0.7790625 2.7990625 -1 1 C-0.67 0.67 -0.34 0.34 0 0 Z " fill="#FA983B" transform="translate(186,248)"/>
<path d="M0 0 C1.32 0 2.64 0 4 0 C4 0.66 4 1.32 4 2 C2.68 2 1.36 2 0 2 C-0.2236068 4.9254644 -0.2236068 4.9254644 1 7 C0.401875 7.0825 -0.19625 7.165 -0.8125 7.25 C-3.5966296 8.20455872 -4.43311142 9.57132271 -6 12 C-6.66 11.67 -7.32 11.34 -8 11 C-6.76640153 9.15559063 -5.51255281 7.32471135 -4.25 5.5 C-3.55390625 4.4790625 -2.8578125 3.458125 -2.140625 2.40625 C-1.43421875 1.6121875 -0.7278125 0.818125 0 0 Z " fill="#F9A542" transform="translate(213,236)"/>
<path d="M0 0 C0.66 0.33 1.32 0.66 2 1 C2.08089542 3.77141717 2.14044062 6.54047819 2.1875 9.3125 C2.21263672 10.09818359 2.23777344 10.88386719 2.26367188 11.69335938 C2.27333984 12.45068359 2.28300781 13.20800781 2.29296875 13.98828125 C2.3086792 14.68477783 2.32438965 15.38127441 2.34057617 16.09887695 C2 18 2 18 -1 21 C-0.67 14.07 -0.34 7.14 0 0 Z " fill="#F78932" transform="translate(294,200)"/>
<path d="M0 0 C0.33 0 0.66 0 1 0 C0.67 3.63 0.34 7.26 0 11 C-0.99 11 -1.98 11 -3 11 C-2.88590407 9.54077307 -2.75834456 8.08259402 -2.625 6.625 C-2.55539063 5.81289062 -2.48578125 5.00078125 -2.4140625 4.1640625 C-2 2 -2 2 0 0 Z " fill="#F98E37" transform="translate(176,227)"/>
<path d="M0 0 C6.81875393 3.47136564 6.81875393 3.47136564 7.75 6.1875 C7.8325 6.785625 7.915 7.38375 8 8 C8.99 8.33 9.98 8.66 11 9 C10.01 9.33 9.02 9.66 8 10 C6.33333333 8.33333333 4.66666667 6.66666667 3 5 C2.401875 4.443125 1.80375 3.88625 1.1875 3.3125 C0 2 0 2 0 0 Z " fill="#F9984A" transform="translate(278,247)"/>
<path d="M0 0 C0.66 0.33 1.32 0.66 2 1 C0.74523029 4.76430913 -0.69422618 5.05044108 -4 7 C-4 7.66 -4 8.32 -4 9 C-5.65 9.33 -7.3 9.66 -9 10 C-8.06409496 8.8944811 -7.12620142 7.79064547 -6.1875 6.6875 C-5.66542969 6.07261719 -5.14335937 5.45773438 -4.60546875 4.82421875 C-3.12827531 3.14575321 -1.59960869 1.56117966 0 0 Z " fill="#F9AE71" transform="translate(243,235)"/>
<path d="M0 0 C0.66 0 1.32 0 2 0 C1.38441495 4.0013028 -0.63737859 6.77824353 -3 10 C-3.99 10.495 -3.99 10.495 -5 11 C-3.78065514 6.96678237 -2.44045073 3.45730521 0 0 Z " fill="#FA9649" transform="translate(198,265)"/>
<path d="M0 0 C1.32 0.33 2.64 0.66 4 1 C2.47793991 3.62901288 1.15634036 5.84365964 -1 8 C-1.66 7.67 -2.32 7.34 -3 7 C-3.33 7.66 -3.66 8.32 -4 9 C-4 6 -4 6 -2.5625 4.5 C-2.046875 4.005 -1.53125 3.51 -1 3 C-0.67 2.01 -0.34 1.02 0 0 Z " fill="#F99346" transform="translate(220,224)"/>
<path d="M0 0 C4.29 0 8.58 0 13 0 C13 0.33 13 0.66 13 1 C10.03 1 7.06 1 4 1 C3.67 1.99 3.34 2.98 3 4 C1.68 3.34 0.36 2.68 -1 2 C-0.67 1.34 -0.34 0.68 0 0 Z " fill="#FACCA8" transform="translate(290,180)"/>
<path d="M0 0 C0.66 0.33 1.32 0.66 2 1 C2 3.64 2 6.28 2 9 C1.01 9 0.02 9 -1 9 C-0.67 6.03 -0.34 3.06 0 0 Z " fill="#F9A052" transform="translate(330,267)"/>
<path d="M0 0 C0.99 0 1.98 0 3 0 C3 0.66 3 1.32 3 2 C3.66 2 4.32 2 5 2 C5 2.66 5 3.32 5 4 C3.35 4.33 1.7 4.66 0 5 C-0.5625 3.0625 -0.5625 3.0625 -1 1 C-0.67 0.67 -0.34 0.34 0 0 Z " fill="#F9A54F" transform="translate(193,303)"/>
<path d="M0 0 C0.66 0.33 1.32 0.66 2 1 C1.34 3.64 0.68 6.28 0 9 C-0.66 9 -1.32 9 -2 9 C-1.125 2.25 -1.125 2.25 0 0 Z " fill="#F99635" transform="translate(329,279)"/>
<path d="M0 0 C0.66 0.33 1.32 0.66 2 1 C1.38461538 6.53846154 1.38461538 6.53846154 -0.5625 8.875 C-1.036875 9.24625 -1.51125 9.6175 -2 10 C-1.46274105 6.62294375 -0.88935377 3.303314 0 0 Z " fill="#F98642" transform="translate(184,259)"/>
<path d="M0 0 C2.31 0.66 4.62 1.32 7 2 C6.67 2.99 6.34 3.98 6 5 C3.36 4.01 0.72 3.02 -2 2 C-1.34 1.34 -0.68 0.68 0 0 Z " fill="#FBA843" transform="translate(290,245)"/>
<path d="M0 0 C0.33 0 0.66 0 1 0 C1.125 2.875 1.125 2.875 1 6 C0.34 6.66 -0.32 7.32 -1 8 C-1.93065133 5.39417629 -2.14917407 4.35801776 -1.0625 1.75 C-0.711875 1.1725 -0.36125 0.595 0 0 Z " fill="#FA9438" transform="translate(183,183)"/>
<path d="M0 0 C0.33 0 0.66 0 1 0 C1 2.97 1 5.94 1 9 C0.67 9 0.34 9 0 9 C0 6.03 0 3.06 0 0 Z " fill="#FF8E1A" transform="translate(296,205)"/>
<path d="" fill="#FFA132" transform="translate(0,0)"/>
<path d="" fill="#FF833B" transform="translate(0,0)"/>
<path d="" fill="#FF7D19" transform="translate(0,0)"/>
<path d="" fill="#FF9335" transform="translate(0,0)"/>
<path d="M0 0 C2 1 2 1 2 1 Z " fill="#FF6640" transform="translate(299,315)"/>
<path d="" fill="#FF6530" transform="translate(0,0)"/>
<path d="" fill="#FF8000" transform="translate(0,0)"/>
<path d="" fill="#FFB700" transform="translate(0,0)"/>
<path d="" fill="#FFFF00" transform="translate(0,0)"/>
<path d="" fill="#FFAA00" transform="translate(0,0)"/>
<path d="" fill="#FF7700" transform="translate(0,0)"/>
<path d="" fill="#FFB700" transform="translate(0,0)"/>
<path d="" fill="#FFFF00" transform="translate(0,0)"/>
<path d="" fill="#FFFF00" transform="translate(0,0)"/>
</svg>
